<svg width="170" height="118" viewBox="0 0 170 118" fill="none" xmlns="http://www.w3.org/2000/svg">
<rect width="170" height="118" fill="white"/>
<path d="M86.8716 30.6727H17.8366C11.4397 30.6727 6.21012 25.2527 6.21012 18.5689C6.21012 11.9094 11.4163 6.46509 17.8366 6.46509H86.8949C88.6226 6.46509 90 5.0068 90 3.23254C90 1.43399 88.5992 0 86.8949 0H17.8366C8.00778 0 0 8.33656 0 18.5689V99.4311C0 109.663 8.00778 118 17.8366 118H86.8949C88.6226 118 90 116.542 90 114.767V33.9053C89.9767 32.131 88.5992 30.6727 86.8716 30.6727ZM83.7665 111.535H17.8366C11.4397 111.535 6.21012 106.115 6.21012 99.4311V32.6657C9.33852 35.4608 13.4008 37.1621 17.8366 37.1621H83.7665V111.535Z" fill="#9561E2"/>
<path d="M3.10506 0C1.37743 0 0 1.45829 0 3.23254C0 5.0068 1.40078 6.46509 3.10506 6.46509H61.4241C63.1517 6.46509 64.5292 5.0068 64.5292 3.23254C64.5292 1.45829 63.1284 0 61.4241 0H3.10506Z" transform="translate(15.7121 15.628)" fill="#9561E2"/>
<path d="M13.212 35.432C11.34 35.432 9.672 35.072 8.208 34.352C6.768 33.608 5.616 32.612 4.752 31.364C3.888 30.116 3.24 28.736 2.808 27.224C2.376 25.712 2.16 24.104 2.16 22.4C2.16 21.152 2.292 19.916 2.556 18.692C2.844 17.468 3.288 16.292 3.888 15.164C4.488 14.036 5.208 13.052 6.048 12.212C6.888 11.348 7.92 10.664 9.144 10.16C10.392 9.632 11.748 9.368 13.212 9.368C15.42 9.368 17.196 9.824 18.54 10.736C19.884 11.624 21.048 12.86 22.032 14.444L18.18 16.64C16.788 14.576 15.132 13.544 13.212 13.544C12.012 13.544 10.956 13.82 10.044 14.372C9.156 14.9 8.472 15.62 7.992 16.532C7.512 17.42 7.164 18.356 6.948 19.34C6.732 20.324 6.624 21.344 6.624 22.4C6.624 24.896 7.176 26.996 8.28 28.7C9.384 30.404 11.028 31.256 13.212 31.256C14.604 31.256 15.756 30.8 16.668 29.888C17.604 28.976 18.072 27.86 18.072 26.54V26.144H13.644V22.076H22.464V25.568C22.464 28.664 21.6 31.088 19.872 32.84C18.144 34.568 15.924 35.432 13.212 35.432ZM37.7151 35V33.524C36.4911 34.796 34.8591 35.432 32.8191 35.432C30.8511 35.432 29.2431 34.904 27.9951 33.848C26.7711 32.768 26.1591 31.256 26.1591 29.312C26.1591 27.32 26.8551 25.808 28.2471 24.776C29.6631 23.744 31.3671 23.228 33.3591 23.228C35.1111 23.228 36.5631 23.552 37.7151 24.2V23.228C37.7151 22.052 37.4151 21.2 36.8151 20.672C36.2391 20.144 35.3391 19.88 34.1151 19.88C32.1231 19.88 30.2991 20.456 28.6431 21.608L27.3471 18.188C29.3391 16.844 31.7391 16.172 34.5471 16.172C35.5071 16.172 36.3471 16.256 37.0671 16.424C37.8111 16.568 38.5671 16.868 39.3351 17.324C40.1271 17.78 40.7391 18.5 41.1711 19.484C41.6031 20.468 41.8191 21.692 41.8191 23.156V35H37.7151ZM33.6111 31.724C35.2191 31.724 36.5871 31.136 37.7151 29.96V27.584C36.6591 27.08 35.4351 26.828 34.0431 26.828C32.9151 26.828 32.0031 27.032 31.3071 27.44C30.6111 27.848 30.2631 28.472 30.2631 29.312C30.2631 30.056 30.5511 30.644 31.1271 31.076C31.7031 31.508 32.5311 31.724 33.6111 31.724ZM52.2563 35.432C49.4003 35.432 47.9723 33.86 47.9723 30.716V20.276H45.2363V16.604H47.9723V11.024L52.1843 9.008V16.604H56.4323V20.276H52.1843V29.888C52.1843 31.064 52.7003 31.652 53.7323 31.652C54.6683 31.652 55.6283 31.376 56.6123 30.824L56.1083 34.604C55.0523 35.156 53.7683 35.432 52.2563 35.432ZM66.5415 35.432C65.0535 35.432 63.6495 35.144 62.3295 34.568C61.0335 33.992 60.0495 33.224 59.3775 32.264L62.2575 29.816C63.5535 31.112 64.9815 31.76 66.5415 31.76C68.5335 31.76 69.5295 31.16 69.5295 29.96C69.5295 29.552 69.3495 29.18 68.9895 28.844C68.6535 28.508 68.2815 28.256 67.8735 28.088C67.4895 27.896 66.8535 27.62 65.9655 27.26C63.8535 26.564 62.3055 25.772 61.3215 24.884C60.3615 23.972 59.8815 22.772 59.8815 21.284C59.8815 19.676 60.4935 18.428 61.7175 17.54C62.9655 16.628 64.5375 16.172 66.4335 16.172C69.2175 16.172 71.4135 17.12 73.0215 19.016L70.1055 21.392C69.0255 20.36 67.8015 19.844 66.4335 19.844C64.7775 19.844 63.9495 20.348 63.9495 21.356C63.9495 21.86 64.2495 22.292 64.8495 22.652C65.4735 23.012 66.3735 23.384 67.5495 23.768C69.5415 24.44 71.0415 25.232 72.0495 26.144C73.0815 27.056 73.5975 28.328 73.5975 29.96C73.5975 31.712 72.9615 33.068 71.6895 34.028C70.4175 34.964 68.7015 35.432 66.5415 35.432ZM78.4702 9.8H88.7662C91.5742 9.8 93.6142 10.436 94.8862 11.708C96.1822 12.98 96.8302 14.588 96.8302 16.532C96.8302 18.932 95.7502 20.66 93.5902 21.716C94.9822 22.22 96.0142 23.012 96.6862 24.092C97.3822 25.148 97.7302 26.3 97.7302 27.548C97.7302 29.564 97.0342 31.316 95.6422 32.804C94.2742 34.268 92.1622 35 89.3062 35H78.4702V9.8ZM88.1902 19.952C89.5822 19.952 90.6382 19.676 91.3582 19.124C92.1022 18.572 92.4742 17.816 92.4742 16.856C92.4742 14.816 91.2742 13.796 88.8742 13.796H82.7902V19.952H88.1902ZM89.5582 31.004C90.9022 31.004 91.8622 30.68 92.4382 30.032C93.0382 29.36 93.3382 28.568 93.3382 27.656C93.3382 25.184 91.7302 23.948 88.5142 23.948H82.7902V31.004H89.5582ZM110.103 35.432C107.511 35.432 105.459 34.58 103.947 32.876C102.435 31.172 101.679 28.82 101.679 25.82C101.679 22.82 102.435 20.468 103.947 18.764C105.459 17.036 107.511 16.172 110.103 16.172C112.695 16.172 114.747 17.036 116.259 18.764C117.795 20.468 118.563 22.82 118.563 25.82C118.563 28.82 117.807 31.172 116.295 32.876C114.783 34.58 112.719 35.432 110.103 35.432ZM110.103 31.4C111.423 31.4 112.455 30.908 113.199 29.924C113.967 28.94 114.351 27.572 114.351 25.82C114.351 24.068 113.967 22.688 113.199 21.68C112.455 20.672 111.423 20.168 110.103 20.168C108.831 20.168 107.811 20.684 107.043 21.716C106.275 22.724 105.891 24.092 105.891 25.82C105.891 27.548 106.263 28.916 107.007 29.924C107.775 30.908 108.807 31.4 110.103 31.4ZM130.599 35.432C128.007 35.432 125.955 34.58 124.443 32.876C122.931 31.172 122.175 28.82 122.175 25.82C122.175 22.82 122.931 20.468 124.443 18.764C125.955 17.036 128.007 16.172 130.599 16.172C133.191 16.172 135.243 17.036 136.755 18.764C138.291 20.468 139.059 22.82 139.059 25.82C139.059 28.82 138.303 31.172 136.791 32.876C135.279 34.58 133.215 35.432 130.599 35.432ZM130.599 31.4C131.919 31.4 132.951 30.908 133.695 29.924C134.463 28.94 134.847 27.572 134.847 25.82C134.847 24.068 134.463 22.688 133.695 21.68C132.951 20.672 131.919 20.168 130.599 20.168C129.327 20.168 128.307 20.684 127.539 21.716C126.771 22.724 126.387 24.092 126.387 25.82C126.387 27.548 126.759 28.916 127.503 29.924C128.271 30.908 129.303 31.4 130.599 31.4ZM159.699 35H155.091L149.835 24.848L147.783 26.864V35H143.571V10.988L147.783 9.008V21.932L152.967 16.604H158.079L152.859 21.824L159.699 35Z" transform="translate(9 46.9911)" fill="#9561E2"/>
</svg>