<?xml version="1.0" encoding="UTF-8"?>
<svg width="114px" height="114px" viewBox="0 0 114 114" version="1.1" xmlns="http://www.w3.org/2000/svg" xmlns:xlink="http://www.w3.org/1999/xlink">
    <!-- Generator: Sketch 50.2 (55047) - http://www.bohemiancoding.com/sketch -->
    <title>fpga-guide-logo</title>
    <desc>Created with Sketch.</desc>
    <defs></defs>
    <g id="Page-1" stroke="none" stroke-width="1" fill="none" fill-rule="evenodd">
        <g id="fpga-guide-logo" fill="#FFFFFF" fill-rule="nonzero">
            <circle id="Oval" cx="36" cy="44" r="3"></circle>
            <circle id="Oval" cx="46" cy="58" r="3"></circle>
            <circle id="Oval" cx="78" cy="71" r="3"></circle>
            <path d="M57,3.55271368e-15 C25.5197693,-1.77635684e-15 3.55271368e-15,25.5197693 0,57 C-3.55271368e-15,88.4802307 25.5197693,114 57,114 C88.4802307,114 114,88.4802307 114,57 C114,41.8826601 107.99466,27.384487 97.3050865,16.6949135 C86.615513,6.0053399 72.1173399,8.8817842e-16 57,3.55271368e-15 Z M49,34 L69,34 C69.5295768,34.0022328 70.0366497,34.2144122 70.41,34.59 L79.41,43.59 C79.7855878,43.9633503 79.9977672,44.4704232 80,45 L80,64.29 C83.3307536,65.2830389 85.428443,68.5695663 84.9266669,72.008791 C84.4248907,75.4480157 81.4756361,77.9982039 78,77.9982039 C74.5243639,77.9982039 71.5751093,75.4480157 71.0733331,72.008791 C70.571557,68.5695663 72.6692464,65.2830389 76,64.29 L76,45.83 L68.17,38 L49,38 C47.8954305,38 47,37.1045695 47,36 C47,34.8954305 47.8954305,34 49,34 Z M63.17,46 L42.71,46 C41.7169611,49.3307536 38.4304337,51.428443 34.991209,50.9266669 C31.5519843,50.4248907 29.0017961,47.4756361 29.0017961,44 C29.0017961,40.5243639 31.5519843,37.5751093 34.991209,37.0733331 C38.4304337,36.571557 41.7169611,38.6692464 42.71,42 L64,42 C64.5295768,42.0022328 65.0366497,42.2144122 65.41,42.59 L71.41,48.59 C71.7855878,48.9633503 71.9977672,49.4704232 72,50 L72,60 C72,61.1045695 71.1045695,62 70,62 C68.8954305,62 68,61.1045695 68,60 L68,50.83 L63.17,46 Z M55.17,60 L52.71,60 C51.7169611,63.3307536 48.4304337,65.428443 44.991209,64.9266669 C41.5519843,64.4248907 39.0017961,61.4756361 39.0017961,58 C39.0017961,54.5243639 41.5519843,51.5751093 44.991209,51.0733331 C48.4304337,50.571557 51.7169611,52.6692464 52.71,56 L56,56 C56.5295768,56.0022328 57.0366497,56.2144122 57.41,56.59 L63.41,62.59 C63.7855878,62.9633503 63.9977672,63.4704232 64,64 L64,74 C63.9977672,74.5295768 63.7855878,75.0366497 63.41,75.41 L57.41,81.41 C57.0366497,81.7855878 56.5295768,81.9977672 56,82 L40,82 C39.4704232,81.9977672 38.9633503,81.7855878 38.59,81.41 L30.59,73.41 C29.8085171,72.6285171 29.8085172,71.361483 30.5900001,70.5800001 C31.371483,69.7985172 32.6385171,69.7985171 33.42,70.58 L40.83,78 L55.17,78 L60,73.17 L60,64.83 L55.17,60 Z M105.09,69.76 C105.702632,69.9932823 106.162049,70.5119822 106.319633,71.148304 C106.477218,71.7846258 106.312961,72.4577778 105.88,72.95 C105.36,73.54 100.7,78.67 95.81,78.67 L95.6,78.67 C94.4017184,78.6360776 93.2372353,78.2652452 92.24,77.6 C91.6266667,78.62 90.96,79.62 90.24,80.6 C92.8690855,81.1414601 95.3705656,82.1800664 97.61,83.66 C98.150113,84.0334923 98.4724698,84.6483276 98.4724698,85.305 C98.4724698,85.9616724 98.150113,86.5765077 97.61,86.95 C97.05,87.35 92.61,90.42 88.29,90.42 C87.6152592,90.4246574 86.9428331,90.3406041 86.29,90.17 C85.0175602,89.7981839 83.8922579,89.039828 83.07,88 C79.2542793,91.0168459 74.8857302,93.2588696 70.21,94.6 L68.34,95.12 C65.7442193,95.7684343 63.1978046,96.6005305 60.72,97.61 C62.3123402,99.0357944 63.5399321,100.822318 64.3,102.82 C64.550086,103.489873 64.4238019,104.24228 63.9687178,104.793798 C63.5136338,105.345315 62.7988878,105.612153 62.0937178,105.493798 C61.3885478,105.375442 60.8000859,104.889873 60.55,104.22 C59.8277583,102.413073 58.5940156,100.856124 57,99.74 C55.4013962,100.86415 54.1672191,102.432077 53.45,104.25 C53.0634007,105.285534 51.9105339,105.811599 50.875,105.425 C49.8394661,105.038401 49.3134007,103.885534 49.7,102.85 C50.4600679,100.852318 51.6876598,99.0657944 53.28,97.64 C50.8021954,96.6305305 48.2557807,95.7984343 45.66,95.15 L43.79,94.63 C39.1119765,93.2798168 34.7432688,91.0275203 30.93,88 C30.0794451,89.0351404 28.9250452,89.7767549 27.63,90.12 C26.9771669,90.2906041 26.3047408,90.3746574 25.63,90.37 C21.33,90.37 16.88,87.3 16.31,86.9 C15.769887,86.5265077 15.4475302,85.9116724 15.4475302,85.255 C15.4475302,84.5983276 15.769887,83.9834923 16.31,83.61 C18.5494344,82.1300664 21.0509145,81.0914601 23.68,80.55 C22.98,79.59 22.3133333,78.59 21.68,77.55 C20.6827647,78.2152452 19.5182816,78.5860776 18.32,78.62 L18.11,78.62 C13.22,78.62 8.56,73.5 8.04,72.9 C7.60703867,72.4077778 7.4427823,71.7346258 7.60036669,71.098304 C7.75795108,70.4619822 8.21736827,69.9432823 8.83,69.71 C11.660539,68.6411372 14.6972858,68.2307661 17.71,68.51 C17.4233333,67.53 17.1733333,66.53 16.96,65.51 C15.6887602,65.9559124 14.3082927,65.9839422 13.02,65.59 C8.26,64.16 5.39,57.65 5.08,56.92 C4.8233248,56.3154718 4.87980673,55.6234521 5.23111368,55.0685468 C5.58242063,54.5136415 6.18377588,54.1665775 6.84,54.14 C7.51,54.14 12.6,53.99 16.19,56.14 C16.2366667,54.9466667 16.3366667,53.76 16.49,52.58 C14.7853953,52.3789031 13.2291845,51.5127442 12.16,50.17 C9.07,46.28 10.42,39.3 10.59,38.52 C10.7276496,37.8868426 11.1635032,37.3596024 11.759471,37.1053228 C12.3554389,36.8510432 13.0376641,36.9012364 13.59,37.24 C15.7227995,38.6254347 17.5919546,40.3794606 19.11,42.42 C19.6166667,41.16 20.1833333,39.93 20.81,38.73 C19.442294,37.8791312 18.4405158,36.5493687 18,35 C16.66,30.22 20.62,24.31 21.07,23.65 C21.4434923,23.109887 22.0583276,22.7875302 22.715,22.7875302 C23.3716724,22.7875302 23.9865077,23.109887 24.36,23.65 C25.6493883,25.5619597 26.6312921,27.664111 27.27,29.88 C27.97,29.15 28.7,28.46 29.46,27.8 C29.15251,26.2839621 29.4009889,24.7078958 30.16,23.36 C32.59,19.03 39.57,17.65 40.36,17.51 C41.0073163,17.3904367 41.6720169,17.5970548 42.1374811,18.0625189 C42.6029452,18.5279831 42.8095633,19.1926837 42.69,19.84 C42.55,20.63 41.17,27.61 36.84,30.04 C35.8796839,30.5850047 34.7941902,30.8710237 33.69,30.87 C33.1957254,30.8687153 32.7029769,30.8150828 32.22,30.71 C24.595306,37.6178542 20.2381484,47.4214589 20.22,57.71 C20.1868143,72.9887329 30.2351366,86.458454 44.89,90.78 L46.72,91.29 C50.2769368,92.1305864 53.7260291,93.3753464 57,95 C60.273105,93.3684609 63.7222254,92.1169804 67.28,91.27 L69.11,90.76 C83.7573406,86.4358395 93.8000439,72.972264 93.77,57.7 C93.7518516,47.4114589 89.394694,37.6078542 81.77,30.7 C81.2870231,30.8050828 80.7942746,30.8587153 80.3,30.86 C79.1965099,30.8501583 78.1145043,30.5538129 77.16,30 C72.83,27.57 71.45,20.59 71.31,19.8 C71.1904367,19.1526837 71.3970548,18.4879831 71.8625189,18.0225189 C72.3279831,17.5570548 72.9926837,17.3504367 73.64,17.47 C74.43,17.61 81.41,18.99 83.84,23.32 C84.5990111,24.6678958 84.84749,26.2439621 84.54,27.76 C85.29,28.42 86.03,29.11 86.73,29.84 C87.3687079,27.624111 88.3506117,25.5219597 89.64,23.61 C90.0134923,23.069887 90.6283276,22.7475302 91.285,22.7475302 C91.9416724,22.7475302 92.5565077,23.069887 92.93,23.61 C93.39,24.27 97.34,30.18 96,34.96 C95.5502975,36.5569777 94.5051843,37.9206356 93.08,38.77 C93.7066667,39.97 94.2733333,41.2 94.78,42.46 C96.2980454,40.4194606 98.1672005,38.6654347 100.3,37.28 C100.852336,36.9412364 101.534561,36.8910432 102.130529,37.1453228 C102.726497,37.3996024 103.16235,37.9268426 103.3,38.56 C103.46,39.34 104.82,46.33 101.73,50.21 C100.660816,51.5527442 99.1046047,52.4189031 97.4,52.62 C97.5533333,53.8 97.6533333,54.9866667 97.7,56.18 C101.29,54.05 106.38,54.18 107.05,54.18 C107.722437,54.1914468 108.344098,54.5400918 108.704514,55.1078972 C109.064929,55.6757026 109.115836,56.3866351 108.84,57 C108.53,57.74 105.66,64.25 100.9,65.67 C99.6117073,66.0639422 98.2312398,66.0359124 96.96,65.59 C96.7466667,66.5966667 96.4966667,67.5966667 96.21,68.59 C99.2204315,68.3012066 102.257109,68.7013093 105.09,69.76 Z" id="Shape"></path>
        </g>
    </g>
</svg>